# xmcd CD database file
#
# Track frame offsets:
#	150
#	19954
#	36587
#	49464
#	73769
#	89383
#	104590
#	122804
#	144325
#	165031
#	181621
#
# Disc length: 2526 seconds
#
# Revision: 1
# Processed by: cddbd v1.5.2PL0 Copyright (c) Steve Scherf et al.
# Submitted via: CDex 1.70beta2
#
DISCID=9609dc0b
DTITLE=Jackson Mackay - The Game
DYEAR=1997
DGENRE=Country
TTITLE0=This is love
TTITLE1=Choosing blues
TTITLE2=Way down New Orleans
TTITLE3=As good as you
TTITLE4=The lonely bushman
TTITLE5=Honky tonk boy
TTITLE6=Lighten up
TTITLE7=Sixteen hundred miles
TTITLE8=Money don't make the world go round
TTITLE9=The Game
TTITLE10=Noname
EXTD=YEAR: 1997
EXTT0=
EXTT1=
EXTT2=
EXTT3=
EXTT4=
EXTT5=
EXTT6=
EXTT7=
EXTT8=
EXTT9=
EXTT10=
PLAYORDER=
